<svg id="Layer_1" data-name="Layer 1" xmlns="http://www.w3.org/2000/svg" viewBox="0 0 923.32 180"><defs><style>.cls-1{fill:#fff;}.cls-2{fill:#fcb32d;}.cls-3{fill:#feed76;}</style></defs><title>Artboard 1-23</title><path class="cls-1" d="M371.1,114.47a26.08,26.08,0,0,1-9.21,7.84,28.62,28.62,0,0,1-13.47,3,30.77,30.77,0,0,1-12.29-2.42,28.31,28.31,0,0,1-9.61-6.73,31.21,31.21,0,0,1-6.29-10.4,38,38,0,0,1-2.29-13.43,37,37,0,0,1,2.28-13.2,31.68,31.68,0,0,1,6.38-10.4,29.53,29.53,0,0,1,9.77-6.89A32.15,32.15,0,0,1,361,61.78a21.59,21.59,0,0,1,9.43,7.33l.71,1,19.74-19.74-.64-.73a45.5,45.5,0,0,0-18.85-12.44,69.74,69.74,0,0,0-47.52-.08A57.82,57.82,0,0,0,304.44,49a55,55,0,0,0-13,18.77,62.12,62.12,0,0,0-4.71,24.56,62.19,62.19,0,0,0,4.63,24.23,55.88,55.88,0,0,0,32,31.14,66.34,66.34,0,0,0,24.13,4.3,60.8,60.8,0,0,0,25.36-5,54.15,54.15,0,0,0,18.54-13.67l.66-.76L371.79,113.5Z"/><path class="cls-1" d="M471.52,77.2a26.89,26.89,0,0,0-9.13-7.58,29.92,29.92,0,0,0-13.89-2.94A26.65,26.65,0,0,0,434,70.53a28,28,0,0,0-7.18,6.31V28.42H399V149h27.79V105.82a18.19,18.19,0,0,1,3.39-11.21c2.22-2.94,5.34-4.37,9.52-4.37a9.78,9.78,0,0,1,5.11,1.18A9.1,9.1,0,0,1,448,94.66a13.94,13.94,0,0,1,1.68,4.89,40.07,40.07,0,0,1,.46,6.11V149h27.95V99.71a47.84,47.84,0,0,0-1.52-11.86A30,30,0,0,0,471.52,77.2Z"/><path class="cls-1" d="M559,78a35.77,35.77,0,0,0-12.76-8.64c-10-4-23-3.9-33.22.08A41.09,41.09,0,0,0,499.37,78a40.45,40.45,0,0,0-9.18,13.52,45.23,45.23,0,0,0-3.37,17.73,44.51,44.51,0,0,0,3.46,18,38.19,38.19,0,0,0,9.51,13.29,41.51,41.51,0,0,0,14.07,8.21,51.29,51.29,0,0,0,17,2.8,49.21,49.21,0,0,0,21.38-4.42,37.32,37.32,0,0,0,14.92-12.66l.61-.89-19.6-12.38-.58.78a19.55,19.55,0,0,1-6.56,5.58,20.69,20.69,0,0,1-9.85,2.15,19.73,19.73,0,0,1-11.84-3.95,15.9,15.9,0,0,1-4-4.34,12.33,12.33,0,0,1-1.66-4.38H570l.1-.93a29.83,29.83,0,0,0,.16-3.09V109.9a52.61,52.61,0,0,0-3-18.24A40,40,0,0,0,559,78Zm-45.4,21A13.1,13.1,0,0,1,515,94.77a14.89,14.89,0,0,1,3.52-4.47,17,17,0,0,1,5.17-3,18.57,18.57,0,0,1,6.54-1.11c4.79,0,8.4,1.36,10.74,4A14.09,14.09,0,0,1,544.5,99Z"/><path class="cls-1" d="M639.75,75.92a36.65,36.65,0,0,0-8-5.81,31,31,0,0,0-15.09-3.42A35.42,35.42,0,0,0,589,79.28,41.91,41.91,0,0,0,581.4,92.7a48.45,48.45,0,0,0-2.64,15.94,50.55,50.55,0,0,0,2.56,16,41.47,41.47,0,0,0,7.48,13.59,37.15,37.15,0,0,0,12,9.44A35.8,35.8,0,0,0,617,151.23a36.18,36.18,0,0,0,15.25-3.31,26.11,26.11,0,0,0,9.58-7.32V149h25.75V28.42H639.75Zm-33,25.68a17,17,0,0,1,8.81-10.21,16.67,16.67,0,0,1,7.53-1.61,16.32,16.32,0,0,1,7.37,1.61A17.8,17.8,0,0,1,636,95.68a20.14,20.14,0,0,1,3.58,6.11,20.07,20.07,0,0,1,0,14,19.91,19.91,0,0,1-3.58,6.11,17.82,17.82,0,0,1-5.56,4.3,18.09,18.09,0,0,1-14.91,0,17,17,0,0,1-5.47-4.29,18.1,18.1,0,0,1-3.34-6.16,23.54,23.54,0,0,1-1.13-7.13A22.77,22.77,0,0,1,606.72,101.59Z"/><path class="cls-1" d="M738.06,75.92a36.66,36.66,0,0,0-8-5.81,31,31,0,0,0-15.09-3.42,35.42,35.42,0,0,0-27.68,12.6,41.9,41.9,0,0,0-7.56,13.42,48.45,48.45,0,0,0-2.64,15.94,50.52,50.52,0,0,0,2.56,16,41.46,41.46,0,0,0,7.48,13.59,37.13,37.13,0,0,0,12,9.44,35.8,35.8,0,0,0,16.14,3.56,36.18,36.18,0,0,0,15.25-3.31,26.11,26.11,0,0,0,9.58-7.32V149h25.75V28.42H738.06Zm-33,25.68a17,17,0,0,1,8.81-10.21,16.67,16.67,0,0,1,7.53-1.61,16.32,16.32,0,0,1,7.37,1.61,17.8,17.8,0,0,1,5.56,4.29,20.14,20.14,0,0,1,3.58,6.11,20.06,20.06,0,0,1,0,14,19.92,19.92,0,0,1-3.58,6.11,17.82,17.82,0,0,1-5.56,4.3,18.09,18.09,0,0,1-14.91,0,16.94,16.94,0,0,1-5.47-4.29,18.1,18.1,0,0,1-3.34-6.16,23.56,23.56,0,0,1-1.13-7.13A22.77,22.77,0,0,1,705,101.59Z"/><path class="cls-1" d="M845.73,76.7a26,26,0,0,0-11.5-7.84,51.39,51.39,0,0,0-17-2.49,56.34,56.34,0,0,0-19.09,3.35,46.23,46.23,0,0,0-16.44,10.11l-.74.71L795.32,96l.76-.69a33,33,0,0,1,8.44-5.47c6.73-3.1,14.71-3,19.61.31,2.43,1.64,3.62,4.15,3.62,7.68V98c-5.32,0-10.85.35-16.48.94a64.71,64.71,0,0,0-16.49,3.83,31.54,31.54,0,0,0-12.32,8.27c-3.24,3.63-4.89,8.46-4.89,14.34a24.34,24.34,0,0,0,2.8,12.11,23.17,23.17,0,0,0,7.14,7.88,29.55,29.55,0,0,0,9.5,4.23,41.27,41.27,0,0,0,10,1.29,33.24,33.24,0,0,0,13.51-2.75,21.36,21.36,0,0,0,8-5.9V149h25.6V108.64a77.34,77.34,0,0,0-2-18.68A33.35,33.35,0,0,0,845.73,76.7Zm-42.41,47.94a6.32,6.32,0,0,1,1.88-4.82,13.23,13.23,0,0,1,5.16-3,34.76,34.76,0,0,1,7.46-1.44c2.83-.26,5.67-.39,8.45-.39h2.25v1.63c0,4.61-1.3,8.3-3.86,11s-6.34,4-11.25,4a19.7,19.7,0,0,1-3.73-.37,9.82,9.82,0,0,1-3.27-1.21,6.8,6.8,0,0,1-2.25-2.18A5.66,5.66,0,0,1,803.32,124.64Z"/><path class="cls-1" d="M919.73,67.36a13.15,13.15,0,0,0-2.65-.52,31,31,0,0,0-3.16-.16,22.91,22.91,0,0,0-13.29,4,26.48,26.48,0,0,0-7.15,7.29V69H866.63V149h27.79V108a18.37,18.37,0,0,1,.9-5.17,16.29,16.29,0,0,1,2.88-5.44,16.85,16.85,0,0,1,5.32-4.26c2.87-1.52,6.84-2,11.33-1.6a19.37,19.37,0,0,1,3.19.59l1.25.34,1.2-24.81Z"/><polygon class="cls-2" points="182.08 54.51 182.08 54.51 118.54 58.27 117.49 122.18 231.26 115.44 232.31 51.53 182.08 54.51"/><path class="cls-3" d="M232.31,51.53C221.63,22.89,162,2.69,99.21,6.41,78.47,7.63,60,11.33,44.9,16.73,14.24,27.71-2.4,45.82,4.76,65,15.43,93.66,75,113.87,137.88,110.15c20.72-1.23,39.22-4.92,54.3-10.32L118.54,58.28Z"/><path class="cls-2" d="M137.88,110.15c-42,2.48-82.44-5.71-107.92-19.94-1.3-.72-2.56-1.47-3.79-2.23l-.81-.51A75.56,75.56,0,0,1,17.78,82l-.67-.57q-1.34-1.15-2.57-2.32l-.75-.73c-1-1-1.86-1.92-2.7-2.9L11,75.41c-.85-1-1.62-2-2.34-3l-.57-.85c-.51-.78-1-1.57-1.42-2.36-.17-.31-.34-.61-.5-.92A30.4,30.4,0,0,1,4.76,65a25.16,25.16,0,0,1-1.64-9.24q-.53,32-1.05,63.9a25.23,25.23,0,0,0,1.64,9.23c.33.88.7,1.74,1.12,2.62.13.26.28.51.41.76s.3.57.45.85.34.64.52,1,.4.62.6.92.55.87.85,1.3l.06.1.14.19c.23.32.5.65.75,1,.38.49.75,1,1.16,1.47.17.21.36.41.53.61l.64.71c.32.37.64.72,1,1.07s.66.66,1,1,.54.55.83.82l.18.18.38.34c.36.33.74.66,1.12,1s1,.85,1.48,1.27l.62.51.73.56c.48.38,1,.76,1.48,1.13l1.35,1,.65.46.35.25.69.45,1.46,1c.58.37,1.17.74,1.77,1.1l.68.43L27,153l.52.3,1.84,1,1.7.92.34.18.53.28,1,.52,1.83.91,1.91.89.87.41,1.13.49,2,.85c.68.28,1.36.57,2.05.85l.68.28,1.37.51c.74.29,1.48.57,2.23.85l1.74.62,1.21.43,1.43.48,2,.64c.78.25,1.55.5,2.35.74l.56.17,1.56.45,2.76.79,1.45.39,1.59.41,1.77.46,1.52.36c1,.24,2,.49,3,.71l.41.09,1,.22q2.53.55,5.12,1l1.86.35q2.86.52,5.78,1l.83.14h0c5.16.77,10.46,1.4,15.85,1.85l.54,0c1.51.13,3,.23,4.54.32l1,.07c1.43.09,2.88.15,4.32.21l1.25.05c1.38.05,2.77.09,4.16.11l1.46,0c1.35,0,2.71,0,4.07,0h1.59c1.33,0,2.66,0,4-.07l1.14,0h0c2.64-.07,5.28-.17,7.94-.33,20.72-1.23,39.21-4.92,54.3-10.32l1.05-63.91C177.09,105.23,158.59,108.91,137.88,110.15Z"/></svg>